<svg width="25" height="25" viewBox="0 0 25 25" fill="none" xmlns="http://www.w3.org/2000/svg">
<g clip-path="url(#clip0_1142_1926)">
<path d="M24.5 12.4529C24.5 5.82549 19.1274 0.452908 12.5 0.452908C5.87258 0.452908 0.5 5.82549 0.5 12.4529C0.5 18.4425 4.88823 23.4069 10.625 24.3071V15.9217H7.57813V12.4529H10.625V9.80916C10.625 6.80166 12.4165 5.14041 15.1576 5.14041C16.4705 5.14041 17.8438 5.37478 17.8438 5.37478V8.32791H16.3306C14.8399 8.32791 14.375 9.25292 14.375 10.2019V12.4529H17.7031L17.1711 15.9217H14.375V24.3071C20.1118 23.4069 24.5 18.4425 24.5 12.4529Z" fill="#1877F2"/>
<path d="M17.1711 15.9224L17.7031 12.4536H14.375V10.2026C14.375 9.25362 14.8399 8.32861 16.3306 8.32861H17.8438V5.37549C17.8438 5.37549 16.4705 5.14111 15.1576 5.14111C12.4165 5.14111 10.625 6.80236 10.625 9.80986V12.4536H7.57812V15.9224H10.625V24.3078C11.2359 24.4037 11.8621 24.4536 12.5 24.4536C13.1379 24.4536 13.7641 24.4037 14.375 24.3078V15.9224H17.1711Z" fill="white"/>
</g>
<defs>
<clipPath id="clip0_1142_1926">
<rect width="24" height="24" fill="white" transform="translate(0.5 0.453613)"/>
</clipPath>
</defs>
</svg>
