<svg width="327" height="32" viewBox="0 0 327 32" fill="none" xmlns="http://www.w3.org/2000/svg">
<path fill-rule="evenodd" clip-rule="evenodd" d="M25.575 15.9535C25.575 16.2618 25.4525 16.5575 25.2345 16.7755C25.0165 16.9935 24.7208 17.116 24.4125 17.116H9.393L13.609 21.332C13.8143 21.5524 13.9261 21.8439 13.9208 22.145C13.9155 22.4462 13.7935 22.7335 13.5805 22.9465C13.3675 23.1595 13.0802 23.2815 12.779 23.2868C12.4778 23.2921 12.1864 23.1804 11.966 22.975L5.766 16.775C5.5483 16.557 5.42603 16.2616 5.42603 15.9535C5.42603 15.6454 5.5483 15.35 5.766 15.132L11.966 8.93201C12.0724 8.81779 12.2008 8.72619 12.3434 8.66265C12.486 8.59911 12.6399 8.56495 12.796 8.56219C12.9521 8.55944 13.1071 8.58815 13.2519 8.64662C13.3966 8.70509 13.5281 8.79211 13.6385 8.9025C13.7489 9.01289 13.8359 9.14438 13.8944 9.28913C13.9529 9.43388 13.9816 9.58893 13.9788 9.74502C13.9761 9.90111 13.9419 10.055 13.8784 10.1976C13.8148 10.3402 13.7232 10.4686 13.609 10.575L9.393 14.791H24.4125C24.7208 14.791 25.0165 14.9135 25.2345 15.1315C25.4525 15.3495 25.575 15.6452 25.575 15.9535Z" fill="#0054A5"/>
<g clip-path="url(#clip0_1_5959)">
<path d="M49.1849 24.2522C50.6279 24.2522 50.5707 24.3859 51.6973 24.3859L51.6018 18.8005L52.0888 16.1462H52.9194H66.8782L66.8687 14.7522L54.1702 13.8452L58.9536 7.76326L66.8687 12.6803H69.8572L58.6631 4.27832L48.6707 14.3607L49.1849 15.0768V24.2522Z" fill="#6096D7"/>
<path d="M48.8414 24.5386H52.0794V18.4662V16.15H52.595H66.8784V14.7426L52.0603 14.2365L58.5426 7.51963L66.8689 12.6803L58.3196 3.95361L47 14.7521H48.8414V24.5386Z" fill="#0054A5"/>
<path d="M57.5213 11.4961H57.2158C57.1314 11.4961 57.063 11.5645 57.063 11.6489V11.9544C57.063 12.0388 57.1314 12.1071 57.2158 12.1071H57.5213C57.6056 12.1071 57.674 12.0388 57.674 11.9544V11.6489C57.674 11.5645 57.6056 11.4961 57.5213 11.4961Z" fill="#0054A5"/>
<path d="M58.7056 11.4961H58.4001C58.3157 11.4961 58.2473 11.5645 58.2473 11.6489V11.9544C58.2473 12.0388 58.3157 12.1071 58.4001 12.1071H58.7056C58.79 12.1071 58.8584 12.0388 58.8584 11.9544V11.6489C58.8584 11.5645 58.79 11.4961 58.7056 11.4961Z" fill="#0054A5"/>
<path d="M57.5213 12.6797H57.2158C57.1314 12.6797 57.063 12.7481 57.063 12.8325V13.138C57.063 13.2223 57.1314 13.2907 57.2158 13.2907H57.5213C57.6056 13.2907 57.674 13.2223 57.674 13.138V12.8325C57.674 12.7481 57.6056 12.6797 57.5213 12.6797Z" fill="#0054A5"/>
<path d="M58.7056 12.6797H58.4001C58.3157 12.6797 58.2473 12.7481 58.2473 12.8325V13.138C58.2473 13.2223 58.3157 13.2907 58.4001 13.2907H58.7056C58.79 13.2907 58.8584 13.2223 58.8584 13.138V12.8325C58.8584 12.7481 58.79 12.6797 58.7056 12.6797Z" fill="#0054A5"/>
<path d="M58.9532 17.1675H55.3633V24.5384H58.9532V17.1675Z" fill="#0054A5"/>
<path d="M71.9004 14.7231H73.6284V16.3081H71.9004V14.7231Z" fill="#0054A5"/>
<g filter="url(#filter0_d_1_5959)">
<path d="M55.6506 17.4736L57.3215 17.7696V23.9375L55.6506 24.1762V17.4736Z" fill="#6096D7"/>
</g>
<path d="M62.1159 17.2884L63.5973 19.9978L65.1025 17.2884H66.9327L64.7202 20.9583L66.9709 24.6282H65.1503L63.5973 21.9857L62.0586 24.6282H60.2236L62.46 20.9583L60.281 17.2884H62.1159ZM70.12 14.8418V24.6282H68.3471V14.8418H70.12Z" fill="#0054A5"/>
<path d="M75.0798 17.1931V18.531H70.8606V17.1931H75.0798ZM71.9023 15.4346H73.6321V22.3252C73.6321 22.5577 73.667 22.7362 73.7372 22.8604C73.8106 22.9814 73.9061 23.0643 74.0238 23.1089C74.1418 23.1535 74.2724 23.1758 74.4158 23.1758C74.524 23.1758 74.6227 23.1678 74.7119 23.1519C74.8043 23.1359 74.8745 23.1216 74.9223 23.1089L75.2137 24.4612C75.1213 24.4931 74.989 24.5281 74.8172 24.5663C74.6483 24.6046 74.4411 24.6268 74.1959 24.6332C73.7626 24.646 73.3724 24.5807 73.0251 24.4373C72.678 24.2908 72.4025 24.0646 72.1985 23.7587C71.9979 23.4529 71.8989 23.0706 71.9023 22.6119V15.4346Z" fill="#0054A5"/>
</g>
<defs>
<filter id="filter0_d_1_5959" x="54.9759" y="16.9676" width="3.02031" height="8.05205" filterUnits="userSpaceOnUse" color-interpolation-filters="sRGB">
<feFlood flood-opacity="0" result="BackgroundImageFix"/>
<feColorMatrix in="SourceAlpha" type="matrix" values="0 0 0 0 0 0 0 0 0 0 0 0 0 0 0 0 0 0 127 0" result="hardAlpha"/>
<feOffset dy="0.168677"/>
<feGaussianBlur stdDeviation="0.337354"/>
<feComposite in2="hardAlpha" operator="out"/>
<feColorMatrix type="matrix" values="0 0 0 0 0 0 0 0 0 0 0 0 0 0 0 0 0 0 0.15 0"/>
<feBlend mode="normal" in2="BackgroundImageFix" result="effect1_dropShadow_1_5959"/>
<feBlend mode="normal" in="SourceGraphic" in2="effect1_dropShadow_1_5959" result="shape"/>
</filter>
<clipPath id="clip0_1_5959">
<rect width="28.7547" height="24" fill="white" transform="translate(47 3.95361)"/>
</clipPath>
</defs>
</svg>
