<svg width="127" height="107" viewBox="0 0 127 107" fill="none" xmlns="http://www.w3.org/2000/svg">
<g clip-path="url(#clip0_1_5118)">
<path d="M9.65032 90.1058C16.0236 90.1058 15.7706 90.6962 20.7466 90.6962L20.3249 66.0272L22.4755 54.3041H26.1442H87.7957L87.7535 48.1474L31.6684 44.1413L52.7952 17.2795L87.7535 38.9966H100.953L51.5124 1.8877L7.37891 46.4184L9.65032 49.5811V90.1058Z" fill="#6096D7"/>
<path d="M8.13294 91.371H22.4341V64.5514V54.3214H24.7112H87.7964V48.1054L22.3497 45.8704L50.98 16.204L87.7542 38.9968L49.9951 0.454102L0 48.1475H8.13294V91.371Z" fill="#0054A5"/>
<path d="M46.4694 33.7666H45.12C44.7474 33.7666 44.4453 34.0687 44.4453 34.4413V35.7907C44.4453 36.1634 44.7474 36.4654 45.12 36.4654H46.4694C46.8421 36.4654 47.1441 36.1634 47.1441 35.7907V34.4413C47.1441 34.0687 46.8421 33.7666 46.4694 33.7666Z" fill="#0054A5"/>
<path d="M51.6999 33.7666H50.3505C49.9779 33.7666 49.6758 34.0687 49.6758 34.4413V35.7907C49.6758 36.1634 49.9779 36.4654 50.3505 36.4654H51.6999C52.0725 36.4654 52.3746 36.1634 52.3746 35.7907V34.4413C52.3746 34.0687 52.0725 33.7666 51.6999 33.7666Z" fill="#0054A5"/>
<path d="M46.4694 38.9951H45.12C44.7474 38.9951 44.4453 39.2972 44.4453 39.6698V41.0192C44.4453 41.3919 44.7474 41.6939 45.12 41.6939H46.4694C46.8421 41.6939 47.1441 41.3919 47.1441 41.0192V39.6698C47.1441 39.2972 46.8421 38.9951 46.4694 38.9951Z" fill="#0054A5"/>
<path d="M51.6999 38.9951H50.3505C49.9779 38.9951 49.6758 39.2972 49.6758 39.6698V41.0192C49.6758 41.3919 49.9779 41.6939 50.3505 41.6939H51.6999C52.0725 41.6939 52.3746 41.3919 52.3746 41.0192V39.6698C52.3746 39.2972 52.0725 38.9951 51.6999 38.9951Z" fill="#0054A5"/>
<path d="M52.7931 58.8154H36.9375V91.3701H52.7931V58.8154Z" fill="#0054A5"/>
<path d="M109.977 48.0205H117.609V55.0205H109.977V48.0205Z" fill="#0054A5"/>
<g filter="url(#filter0_d_1_5118)">
<path d="M38.207 60.167L45.5867 61.4742V88.7156L38.207 89.7698V60.167Z" fill="#6096D7"/>
</g>
<path d="M66.7625 59.3488L73.3051 71.3154L79.9532 59.3488H88.0365L78.2648 75.5576L88.2053 91.7663H80.1643L73.3051 80.0952L66.5092 91.7663H58.4049L68.2821 75.5576L58.6581 59.3488H66.7625ZM102.114 48.543V91.7663H94.2836V48.543H102.114Z" fill="#0054A5"/>
<path d="M124.019 58.9288V64.8382H105.384V58.9288H124.019ZM109.985 51.1621H117.625V81.5957C117.625 82.6228 117.779 83.4108 118.089 83.9595C118.413 84.4941 118.835 84.86 119.355 85.057C119.876 85.2539 120.453 85.3524 121.086 85.3524C121.564 85.3524 122 85.3172 122.394 85.2469C122.802 85.1765 123.112 85.1132 123.323 85.057L124.61 91.0297C124.202 91.1704 123.618 91.3252 122.859 91.494C122.113 91.6629 121.198 91.7613 120.115 91.7895C118.201 91.8458 116.478 91.5573 114.944 90.9242C113.411 90.277 112.194 89.278 111.293 87.9272C110.407 86.5765 109.97 84.8881 109.985 82.862V51.1621Z" fill="#0054A5"/>
</g>
<defs>
<filter id="filter0_d_1_5118" x="37.5323" y="59.661" width="8.72905" height="30.952" filterUnits="userSpaceOnUse" color-interpolation-filters="sRGB">
<feFlood flood-opacity="0" result="BackgroundImageFix"/>
<feColorMatrix in="SourceAlpha" type="matrix" values="0 0 0 0 0 0 0 0 0 0 0 0 0 0 0 0 0 0 127 0" result="hardAlpha"/>
<feOffset dy="0.168677"/>
<feGaussianBlur stdDeviation="0.337354"/>
<feComposite in2="hardAlpha" operator="out"/>
<feColorMatrix type="matrix" values="0 0 0 0 0 0 0 0 0 0 0 0 0 0 0 0 0 0 0.15 0"/>
<feBlend mode="normal" in2="BackgroundImageFix" result="effect1_dropShadow_1_5118"/>
<feBlend mode="normal" in="SourceGraphic" in2="effect1_dropShadow_1_5118" result="shape"/>
</filter>
<clipPath id="clip0_1_5118">
<rect width="127" height="106" fill="white" transform="translate(0 0.454102)"/>
</clipPath>
</defs>
</svg>
