<svg width="25" height="25" viewBox="0 0 25 25" fill="none" xmlns="http://www.w3.org/2000/svg">
<path d="M23.06 12.7036C23.06 11.9236 22.99 11.1736 22.86 10.4536H12.5V14.7086H18.42C18.165 16.0836 17.39 17.2486 16.225 18.0286V20.7886H19.78C21.86 18.8736 23.06 16.0536 23.06 12.7036Z" fill="#4285F4"/>
<path d="M12.5019 23.4535C15.4719 23.4535 17.9619 22.4685 19.7819 20.7885L16.2269 18.0285C15.2419 18.6885 13.9819 19.0785 12.5019 19.0785C9.63688 19.0785 7.21187 17.1435 6.34687 14.5435H2.67188V17.3935C4.48187 20.9885 8.20187 23.4535 12.5019 23.4535Z" fill="#34A853"/>
<path d="M6.345 14.5442C6.125 13.8842 6 13.1792 6 12.4542C6 11.7292 6.125 11.0242 6.345 10.3642V7.51416H2.67C1.9 9.04702 1.49932 10.7388 1.5 12.4542C1.5 14.2292 1.925 15.9092 2.67 17.3942L6.345 14.5442Z" fill="#FBBC05"/>
<path d="M12.5019 5.82861C14.1169 5.82861 15.5669 6.38361 16.7069 7.47361L19.8619 4.31861C17.9569 2.54361 15.4669 1.45361 12.5019 1.45361C8.20187 1.45361 4.48187 3.91861 2.67188 7.51361L6.34687 10.3636C7.21187 7.76361 9.63688 5.82861 12.5019 5.82861Z" fill="#EA4335"/>
</svg>
