<svg width="29" height="25" viewBox="0 0 29 25" fill="none" xmlns="http://www.w3.org/2000/svg">
<g clip-path="url(#clip0_1_5892)">
<path d="M2.18494 21.2522C3.62794 21.2522 3.57066 21.3859 4.6973 21.3859L4.60182 15.8005L5.08875 13.1462H5.9194H19.8782L19.8687 11.7522L7.17016 10.8452L11.9536 4.76326L19.8687 9.68034H22.8572L11.6631 1.27832L1.67065 11.3607L2.18494 12.0768V21.2522Z" fill="#6096D7"/>
<path d="M1.84142 21.5386H5.07942V15.4662V13.15H5.59499H19.8784V11.7426L5.06031 11.2365L11.5426 4.51963L19.8689 9.68026L11.3196 0.953613L0 11.7521H1.84142V21.5386Z" fill="#0054A5"/>
<path d="M10.5213 8.49609H10.2158C10.1314 8.49609 10.063 8.56449 10.063 8.64886V8.95439C10.063 9.03875 10.1314 9.10715 10.2158 9.10715H10.5213C10.6056 9.10715 10.674 9.03875 10.674 8.95439V8.64886C10.674 8.56449 10.6056 8.49609 10.5213 8.49609Z" fill="#0054A5"/>
<path d="M11.7056 8.49609H11.4001C11.3157 8.49609 11.2473 8.56449 11.2473 8.64886V8.95439C11.2473 9.03875 11.3157 9.10715 11.4001 9.10715H11.7056C11.79 9.10715 11.8584 9.03875 11.8584 8.95439V8.64886C11.8584 8.56449 11.79 8.49609 11.7056 8.49609Z" fill="#0054A5"/>
<path d="M10.5213 9.67969H10.2158C10.1314 9.67969 10.063 9.74808 10.063 9.83245V10.138C10.063 10.2223 10.1314 10.2907 10.2158 10.2907H10.5213C10.6056 10.2907 10.674 10.2223 10.674 10.138V9.83245C10.674 9.74808 10.6056 9.67969 10.5213 9.67969Z" fill="#0054A5"/>
<path d="M11.7056 9.67969H11.4001C11.3157 9.67969 11.2473 9.74808 11.2473 9.83245V10.138C11.2473 10.2223 11.3157 10.2907 11.4001 10.2907H11.7056C11.79 10.2907 11.8584 10.2223 11.8584 10.138V9.83245C11.8584 9.74808 11.79 9.67969 11.7056 9.67969Z" fill="#0054A5"/>
<path d="M11.9532 14.1675H8.36328V21.5384H11.9532V14.1675Z" fill="#0054A5"/>
<path d="M24.9004 11.7231H26.6284V13.3081H24.9004V11.7231Z" fill="#0054A5"/>
<g filter="url(#filter0_d_1_5892)">
<path d="M8.65063 14.4736L10.3215 14.7696V20.9375L8.65063 21.1762V14.4736Z" fill="#6096D7"/>
</g>
<path d="M15.1159 14.2884L16.5973 16.9978L18.1025 14.2884H19.9327L17.7202 17.9583L19.9709 21.6282H18.1503L16.5973 18.9857L15.0586 21.6282H13.2236L15.46 17.9583L13.281 14.2884H15.1159ZM23.12 11.8418V21.6282H21.3471V11.8418H23.12Z" fill="#0054A5"/>
<path d="M28.0798 14.1931V15.531H23.8606V14.1931H28.0798ZM24.9023 12.4346H26.6321V19.3252C26.6321 19.5577 26.667 19.7362 26.7372 19.8604C26.8106 19.9814 26.9061 20.0643 27.0238 20.1089C27.1418 20.1535 27.2724 20.1758 27.4158 20.1758C27.524 20.1758 27.6227 20.1678 27.7119 20.1519C27.8043 20.1359 27.8745 20.1216 27.9223 20.1089L28.2137 21.4612C28.1213 21.4931 27.989 21.5281 27.8172 21.5663C27.6483 21.6046 27.4411 21.6268 27.1959 21.6332C26.7626 21.646 26.3724 21.5807 26.0251 21.4373C25.678 21.2908 25.4025 21.0646 25.1985 20.7587C24.9979 20.4529 24.8989 20.0706 24.9023 19.6119V12.4346Z" fill="#0054A5"/>
</g>
<defs>
<filter id="filter0_d_1_5892" x="7.97593" y="13.9676" width="3.02031" height="8.05205" filterUnits="userSpaceOnUse" color-interpolation-filters="sRGB">
<feFlood flood-opacity="0" result="BackgroundImageFix"/>
<feColorMatrix in="SourceAlpha" type="matrix" values="0 0 0 0 0 0 0 0 0 0 0 0 0 0 0 0 0 0 127 0" result="hardAlpha"/>
<feOffset dy="0.168677"/>
<feGaussianBlur stdDeviation="0.337354"/>
<feComposite in2="hardAlpha" operator="out"/>
<feColorMatrix type="matrix" values="0 0 0 0 0 0 0 0 0 0 0 0 0 0 0 0 0 0 0.15 0"/>
<feBlend mode="normal" in2="BackgroundImageFix" result="effect1_dropShadow_1_5892"/>
<feBlend mode="normal" in="SourceGraphic" in2="effect1_dropShadow_1_5892" result="shape"/>
</filter>
<clipPath id="clip0_1_5892">
<rect width="28.7547" height="24" fill="white" transform="translate(0 0.953613)"/>
</clipPath>
</defs>
</svg>
